<svg width="26" height="28" viewBox="0 0 26 28" fill="none" xmlns="http://www.w3.org/2000/svg">
<path d="M3.02105 0.999999L22.8105 1L25 3.81311L17.2105 13.9574L25 24.1016L22.8105 27L3.02105 27L1 24.1016L8.47158 14.1279L8.66316 13.8721L1 3.81311L3.02105 0.999999Z" fill="url(#paint0_linear_2149_38205)"/>
<path d="M3.02105 0.999999L22.8105 1L25 3.81311M3.02105 0.999999L1 3.81311L8.66316 13.8721L8.47158 14.1279M3.02105 0.999999L10.8253 11.1443M25 3.81311L9.42105 3.81311L11.5263 6.62623L14.3895 6.62623M25 3.81311L17.2105 13.9574M25 24.1016L9.42105 24.1016L11.5157 21.3738M25 24.1016L22.8105 27L3.02105 27M25 24.1016L17.2105 13.9574M3.02105 27L18.6 6.62623L14.3895 6.62623M3.02105 27L1 24.1016L8.47158 14.1279M14.3895 6.62623L10.8253 11.1443M8.47158 14.1279L10.8253 11.1443M17.2105 13.9574L15.0632 16.7539M11.5157 21.3738L14.3895 21.3738M11.5157 21.3738L12.9558 19.4984M15.0632 16.7539L18.6 21.3738L14.3895 21.3738M15.0632 16.7539L12.9558 19.4984M14.3895 21.3738L12.9558 19.4984" stroke="#F8FAFF" stroke-width="1.2"/>
<defs>
<linearGradient id="paint0_linear_2149_38205" x1="13.2809" y1="2.45854" x2="13.2809" y2="28.2049" gradientUnits="userSpaceOnUse">
<stop stop-color="#117CFF"/>
<stop offset="1" stop-color="#00BFFF"/>
</linearGradient>
</defs>
</svg>
